<svg width="92" height="92" viewBox="0 0 92 92" xmlns="http://www.w3.org/2000/svg">
  <defs>
    <linearGradient id="g" x1="0" y1="0" x2="1" y2="1">
      <stop offset="0" stop-color="#1e2838"/>
      <stop offset="1" stop-color="#0d121c"/>
    </linearGradient>
  </defs>
  <rect x="1" y="1" width="90" height="90" rx="12" fill="url(#g)" stroke="#b89b5e" stroke-width="2"/>
  <g fill="#b89b5e" opacity=".9">
    <path d="M46 20c-10 0-18 8-18 18v6l-6 4 6 4v8l10 8h16l10-8v-8l6-4-6-4v-6c0-10-8-18-18-18zm0 8c6 0 10 4 10 10v14l-10 8-10-8V38c0-6 4-10 10-10z"/>
  </g>
</svg>
